<mxfile host="app.diagrams.net" modified="2024-03-01T05:45:09.047Z" agent="Mozilla/5.0 (Windows NT 10.0; Win64; x64) AppleWebKit/537.36 (KHTML, like Gecko) Chrome/121.0.0.0 Safari/537.36" etag="AEGMTUeO8adrjpsa4Twg" version="24.0.0" type="github" pages="2">
  <diagram id="C5RBs43oDa-KdzZeNtuy" name="Page-1">
    <mxGraphModel dx="1050" dy="530" grid="1" gridSize="10" guides="1" tooltips="1" connect="1" arrows="1" fold="1" page="1" pageScale="1" pageWidth="827" pageHeight="1169" math="0" shadow="0">
      <root>
        <mxCell id="WIyWlLk6GJQsqaUBKTNV-0" />
        <mxCell id="WIyWlLk6GJQsqaUBKTNV-1" parent="WIyWlLk6GJQsqaUBKTNV-0" />
        <mxCell id="h3wy3HksXLd2l_CeTm2d-72" style="edgeStyle=orthogonalEdgeStyle;rounded=0;orthogonalLoop=1;jettySize=auto;html=1;entryX=0.5;entryY=0;entryDx=0;entryDy=0;" parent="WIyWlLk6GJQsqaUBKTNV-1" source="WIyWlLk6GJQsqaUBKTNV-3" target="h3wy3HksXLd2l_CeTm2d-71" edge="1">
          <mxGeometry relative="1" as="geometry" />
        </mxCell>
        <mxCell id="WIyWlLk6GJQsqaUBKTNV-3" value="開啟電源" style="rounded=1;whiteSpace=wrap;html=1;fontSize=12;glass=0;strokeWidth=1;shadow=0;" parent="WIyWlLk6GJQsqaUBKTNV-1" vertex="1">
          <mxGeometry x="160" y="10" width="120" height="40" as="geometry" />
        </mxCell>
        <mxCell id="h3wy3HksXLd2l_CeTm2d-15" value="" style="edgeStyle=orthogonalEdgeStyle;rounded=0;orthogonalLoop=1;jettySize=auto;html=1;" parent="WIyWlLk6GJQsqaUBKTNV-1" source="h3wy3HksXLd2l_CeTm2d-0" target="h3wy3HksXLd2l_CeTm2d-13" edge="1">
          <mxGeometry relative="1" as="geometry" />
        </mxCell>
        <mxCell id="h3wy3HksXLd2l_CeTm2d-0" value="等待PC登入" style="rounded=0;whiteSpace=wrap;html=1;" parent="WIyWlLk6GJQsqaUBKTNV-1" vertex="1">
          <mxGeometry x="310" y="70" width="120" height="40" as="geometry" />
        </mxCell>
        <mxCell id="h3wy3HksXLd2l_CeTm2d-69" value="" style="edgeStyle=orthogonalEdgeStyle;rounded=0;orthogonalLoop=1;jettySize=auto;html=1;" parent="WIyWlLk6GJQsqaUBKTNV-1" source="h3wy3HksXLd2l_CeTm2d-13" target="h3wy3HksXLd2l_CeTm2d-68" edge="1">
          <mxGeometry relative="1" as="geometry" />
        </mxCell>
        <mxCell id="h3wy3HksXLd2l_CeTm2d-13" value="手臂上電" style="rounded=0;whiteSpace=wrap;html=1;" parent="WIyWlLk6GJQsqaUBKTNV-1" vertex="1">
          <mxGeometry x="474" y="70" width="120" height="40" as="geometry" />
        </mxCell>
        <mxCell id="t9_P3x3vjHC5aABz5pYT-3" style="edgeStyle=orthogonalEdgeStyle;rounded=0;orthogonalLoop=1;jettySize=auto;html=1;entryX=0.5;entryY=0;entryDx=0;entryDy=0;" parent="WIyWlLk6GJQsqaUBKTNV-1" source="h3wy3HksXLd2l_CeTm2d-68" target="t9_P3x3vjHC5aABz5pYT-1" edge="1">
          <mxGeometry relative="1" as="geometry" />
        </mxCell>
        <mxCell id="h3wy3HksXLd2l_CeTm2d-68" value="產品參數載入" style="rounded=0;whiteSpace=wrap;html=1;" parent="WIyWlLk6GJQsqaUBKTNV-1" vertex="1">
          <mxGeometry x="630" y="70" width="120" height="40" as="geometry" />
        </mxCell>
        <mxCell id="t9_P3x3vjHC5aABz5pYT-0" style="edgeStyle=orthogonalEdgeStyle;rounded=0;orthogonalLoop=1;jettySize=auto;html=1;entryX=0;entryY=0.5;entryDx=0;entryDy=0;" parent="WIyWlLk6GJQsqaUBKTNV-1" source="h3wy3HksXLd2l_CeTm2d-71" target="h3wy3HksXLd2l_CeTm2d-0" edge="1">
          <mxGeometry relative="1" as="geometry" />
        </mxCell>
        <mxCell id="h3wy3HksXLd2l_CeTm2d-71" value="點位數據載入" style="rounded=0;whiteSpace=wrap;html=1;" parent="WIyWlLk6GJQsqaUBKTNV-1" vertex="1">
          <mxGeometry x="165" y="70" width="110" height="40" as="geometry" />
        </mxCell>
        <mxCell id="MqYh8-qySRi6QhNfX3zY-9" style="edgeStyle=orthogonalEdgeStyle;rounded=0;orthogonalLoop=1;jettySize=auto;html=1;entryX=0.5;entryY=0;entryDx=0;entryDy=0;" parent="WIyWlLk6GJQsqaUBKTNV-1" source="h3wy3HksXLd2l_CeTm2d-80" target="MqYh8-qySRi6QhNfX3zY-1" edge="1">
          <mxGeometry relative="1" as="geometry">
            <mxPoint x="360" y="220" as="targetPoint" />
            <Array as="points">
              <mxPoint x="370" y="220" />
              <mxPoint x="90" y="220" />
            </Array>
          </mxGeometry>
        </mxCell>
        <mxCell id="MqYh8-qySRi6QhNfX3zY-10" style="edgeStyle=orthogonalEdgeStyle;rounded=0;orthogonalLoop=1;jettySize=auto;html=1;entryX=0.5;entryY=0;entryDx=0;entryDy=0;" parent="WIyWlLk6GJQsqaUBKTNV-1" source="h3wy3HksXLd2l_CeTm2d-80" target="MqYh8-qySRi6QhNfX3zY-2" edge="1">
          <mxGeometry relative="1" as="geometry">
            <Array as="points">
              <mxPoint x="370" y="220" />
              <mxPoint x="200" y="220" />
            </Array>
          </mxGeometry>
        </mxCell>
        <mxCell id="MqYh8-qySRi6QhNfX3zY-11" style="edgeStyle=orthogonalEdgeStyle;rounded=0;orthogonalLoop=1;jettySize=auto;html=1;exitX=0.5;exitY=1;exitDx=0;exitDy=0;entryX=0.5;entryY=0;entryDx=0;entryDy=0;" parent="WIyWlLk6GJQsqaUBKTNV-1" source="h3wy3HksXLd2l_CeTm2d-80" target="MqYh8-qySRi6QhNfX3zY-3" edge="1">
          <mxGeometry relative="1" as="geometry" />
        </mxCell>
        <mxCell id="MqYh8-qySRi6QhNfX3zY-12" style="edgeStyle=orthogonalEdgeStyle;rounded=0;orthogonalLoop=1;jettySize=auto;html=1;entryX=0.5;entryY=0;entryDx=0;entryDy=0;" parent="WIyWlLk6GJQsqaUBKTNV-1" source="h3wy3HksXLd2l_CeTm2d-80" target="MqYh8-qySRi6QhNfX3zY-4" edge="1">
          <mxGeometry relative="1" as="geometry" />
        </mxCell>
        <mxCell id="MqYh8-qySRi6QhNfX3zY-13" style="edgeStyle=orthogonalEdgeStyle;rounded=0;orthogonalLoop=1;jettySize=auto;html=1;entryX=0.5;entryY=0;entryDx=0;entryDy=0;" parent="WIyWlLk6GJQsqaUBKTNV-1" source="h3wy3HksXLd2l_CeTm2d-80" target="MqYh8-qySRi6QhNfX3zY-6" edge="1">
          <mxGeometry relative="1" as="geometry">
            <Array as="points">
              <mxPoint x="370" y="220" />
              <mxPoint x="534" y="220" />
            </Array>
          </mxGeometry>
        </mxCell>
        <mxCell id="MqYh8-qySRi6QhNfX3zY-14" style="edgeStyle=orthogonalEdgeStyle;rounded=0;orthogonalLoop=1;jettySize=auto;html=1;entryX=0.5;entryY=0;entryDx=0;entryDy=0;" parent="WIyWlLk6GJQsqaUBKTNV-1" source="h3wy3HksXLd2l_CeTm2d-80" target="MqYh8-qySRi6QhNfX3zY-7" edge="1">
          <mxGeometry relative="1" as="geometry">
            <Array as="points">
              <mxPoint x="370" y="220" />
              <mxPoint x="640" y="220" />
            </Array>
          </mxGeometry>
        </mxCell>
        <mxCell id="MqYh8-qySRi6QhNfX3zY-42" style="edgeStyle=orthogonalEdgeStyle;rounded=0;orthogonalLoop=1;jettySize=auto;html=1;" parent="WIyWlLk6GJQsqaUBKTNV-1" source="h3wy3HksXLd2l_CeTm2d-80" target="MqYh8-qySRi6QhNfX3zY-41" edge="1">
          <mxGeometry relative="1" as="geometry">
            <Array as="points">
              <mxPoint x="370" y="220" />
              <mxPoint x="740" y="220" />
            </Array>
          </mxGeometry>
        </mxCell>
        <mxCell id="h3wy3HksXLd2l_CeTm2d-80" value="連線成功" style="rounded=0;whiteSpace=wrap;html=1;" parent="WIyWlLk6GJQsqaUBKTNV-1" vertex="1">
          <mxGeometry x="310" y="160" width="120" height="40" as="geometry" />
        </mxCell>
        <mxCell id="MqYh8-qySRi6QhNfX3zY-15" style="edgeStyle=orthogonalEdgeStyle;rounded=0;orthogonalLoop=1;jettySize=auto;html=1;entryX=0.5;entryY=0;entryDx=0;entryDy=0;" parent="WIyWlLk6GJQsqaUBKTNV-1" source="t9_P3x3vjHC5aABz5pYT-1" target="h3wy3HksXLd2l_CeTm2d-80" edge="1">
          <mxGeometry relative="1" as="geometry">
            <Array as="points">
              <mxPoint x="530" y="180" />
              <mxPoint x="530" y="140" />
              <mxPoint x="370" y="140" />
            </Array>
          </mxGeometry>
        </mxCell>
        <mxCell id="t9_P3x3vjHC5aABz5pYT-1" value="等待連線" style="rounded=0;whiteSpace=wrap;html=1;" parent="WIyWlLk6GJQsqaUBKTNV-1" vertex="1">
          <mxGeometry x="630" y="160" width="120" height="40" as="geometry" />
        </mxCell>
        <mxCell id="MqYh8-qySRi6QhNfX3zY-0" value="入料手臂" style="rounded=0;whiteSpace=wrap;html=1;" parent="WIyWlLk6GJQsqaUBKTNV-1" vertex="1">
          <mxGeometry width="120" height="60" as="geometry" />
        </mxCell>
        <mxCell id="vl5Y57umSdp4ZoqZ4JNc-5" style="edgeStyle=orthogonalEdgeStyle;rounded=0;orthogonalLoop=1;jettySize=auto;html=1;entryX=0.5;entryY=0;entryDx=0;entryDy=0;" edge="1" parent="WIyWlLk6GJQsqaUBKTNV-1" source="MqYh8-qySRi6QhNfX3zY-1" target="vl5Y57umSdp4ZoqZ4JNc-3">
          <mxGeometry relative="1" as="geometry" />
        </mxCell>
        <mxCell id="MqYh8-qySRi6QhNfX3zY-1" value="取料" style="rounded=0;whiteSpace=wrap;html=1;" parent="WIyWlLk6GJQsqaUBKTNV-1" vertex="1">
          <mxGeometry x="50" y="240" width="80" height="40" as="geometry" />
        </mxCell>
        <mxCell id="MqYh8-qySRi6QhNfX3zY-18" style="edgeStyle=orthogonalEdgeStyle;rounded=0;orthogonalLoop=1;jettySize=auto;html=1;entryX=0.5;entryY=0;entryDx=0;entryDy=0;" parent="WIyWlLk6GJQsqaUBKTNV-1" source="MqYh8-qySRi6QhNfX3zY-2" target="MqYh8-qySRi6QhNfX3zY-16" edge="1">
          <mxGeometry relative="1" as="geometry" />
        </mxCell>
        <mxCell id="MqYh8-qySRi6QhNfX3zY-2" value="放料" style="rounded=0;whiteSpace=wrap;html=1;" parent="WIyWlLk6GJQsqaUBKTNV-1" vertex="1">
          <mxGeometry x="160" y="240" width="80" height="40" as="geometry" />
        </mxCell>
        <mxCell id="MqYh8-qySRi6QhNfX3zY-34" style="edgeStyle=orthogonalEdgeStyle;rounded=0;orthogonalLoop=1;jettySize=auto;html=1;entryX=0.5;entryY=0;entryDx=0;entryDy=0;" parent="WIyWlLk6GJQsqaUBKTNV-1" source="MqYh8-qySRi6QhNfX3zY-3" target="MqYh8-qySRi6QhNfX3zY-21" edge="1">
          <mxGeometry relative="1" as="geometry">
            <Array as="points">
              <mxPoint x="320" y="440" />
              <mxPoint x="360" y="440" />
              <mxPoint x="360" y="550" />
              <mxPoint x="240" y="550" />
            </Array>
          </mxGeometry>
        </mxCell>
        <mxCell id="MqYh8-qySRi6QhNfX3zY-3" value="回原點" style="rounded=0;whiteSpace=wrap;html=1;" parent="WIyWlLk6GJQsqaUBKTNV-1" vertex="1">
          <mxGeometry x="280" y="240" width="80" height="40" as="geometry" />
        </mxCell>
        <mxCell id="MqYh8-qySRi6QhNfX3zY-43" style="edgeStyle=orthogonalEdgeStyle;rounded=0;orthogonalLoop=1;jettySize=auto;html=1;entryX=0.5;entryY=0;entryDx=0;entryDy=0;" parent="WIyWlLk6GJQsqaUBKTNV-1" source="MqYh8-qySRi6QhNfX3zY-4" target="MqYh8-qySRi6QhNfX3zY-21" edge="1">
          <mxGeometry relative="1" as="geometry">
            <mxPoint x="420" y="550" as="targetPoint" />
            <Array as="points">
              <mxPoint x="420" y="550" />
              <mxPoint x="240" y="550" />
            </Array>
          </mxGeometry>
        </mxCell>
        <mxCell id="MqYh8-qySRi6QhNfX3zY-4" value="讀其他產品" style="rounded=0;whiteSpace=wrap;html=1;" parent="WIyWlLk6GJQsqaUBKTNV-1" vertex="1">
          <mxGeometry x="380" y="240" width="80" height="40" as="geometry" />
        </mxCell>
        <mxCell id="MqYh8-qySRi6QhNfX3zY-45" style="edgeStyle=orthogonalEdgeStyle;rounded=0;orthogonalLoop=1;jettySize=auto;html=1;" parent="WIyWlLk6GJQsqaUBKTNV-1" source="MqYh8-qySRi6QhNfX3zY-6" target="MqYh8-qySRi6QhNfX3zY-21" edge="1">
          <mxGeometry relative="1" as="geometry">
            <Array as="points">
              <mxPoint x="530" y="550" />
              <mxPoint x="240" y="550" />
            </Array>
          </mxGeometry>
        </mxCell>
        <mxCell id="MqYh8-qySRi6QhNfX3zY-6" value="放回料盤" style="rounded=0;whiteSpace=wrap;html=1;" parent="WIyWlLk6GJQsqaUBKTNV-1" vertex="1">
          <mxGeometry x="494" y="240" width="80" height="40" as="geometry" />
        </mxCell>
        <mxCell id="MqYh8-qySRi6QhNfX3zY-46" style="edgeStyle=orthogonalEdgeStyle;rounded=0;orthogonalLoop=1;jettySize=auto;html=1;entryX=0.5;entryY=0;entryDx=0;entryDy=0;" parent="WIyWlLk6GJQsqaUBKTNV-1" source="MqYh8-qySRi6QhNfX3zY-7" target="MqYh8-qySRi6QhNfX3zY-21" edge="1">
          <mxGeometry relative="1" as="geometry">
            <Array as="points">
              <mxPoint x="640" y="550" />
              <mxPoint x="240" y="550" />
            </Array>
          </mxGeometry>
        </mxCell>
        <mxCell id="MqYh8-qySRi6QhNfX3zY-7" value="指定取料位" style="rounded=0;whiteSpace=wrap;html=1;" parent="WIyWlLk6GJQsqaUBKTNV-1" vertex="1">
          <mxGeometry x="600" y="240" width="80" height="40" as="geometry" />
        </mxCell>
        <mxCell id="MqYh8-qySRi6QhNfX3zY-30" value="成功" style="edgeStyle=orthogonalEdgeStyle;rounded=0;orthogonalLoop=1;jettySize=auto;html=1;entryX=0.5;entryY=0;entryDx=0;entryDy=0;" parent="WIyWlLk6GJQsqaUBKTNV-1" source="MqYh8-qySRi6QhNfX3zY-16" target="MqYh8-qySRi6QhNfX3zY-29" edge="1">
          <mxGeometry relative="1" as="geometry" />
        </mxCell>
        <mxCell id="MqYh8-qySRi6QhNfX3zY-32" value="失敗" style="edgeStyle=orthogonalEdgeStyle;rounded=0;orthogonalLoop=1;jettySize=auto;html=1;entryX=0.5;entryY=0;entryDx=0;entryDy=0;fillColor=#ffe6cc;strokeColor=#d79b00;" parent="WIyWlLk6GJQsqaUBKTNV-1" source="MqYh8-qySRi6QhNfX3zY-16" target="MqYh8-qySRi6QhNfX3zY-31" edge="1">
          <mxGeometry relative="1" as="geometry">
            <Array as="points">
              <mxPoint x="298" y="350" />
            </Array>
          </mxGeometry>
        </mxCell>
        <mxCell id="MqYh8-qySRi6QhNfX3zY-16" value="拍照取像" style="rhombus;whiteSpace=wrap;html=1;" parent="WIyWlLk6GJQsqaUBKTNV-1" vertex="1">
          <mxGeometry x="160" y="310" width="80" height="80" as="geometry" />
        </mxCell>
        <mxCell id="MqYh8-qySRi6QhNfX3zY-48" style="rounded=0;orthogonalLoop=1;jettySize=auto;html=1;entryX=0;entryY=0.5;entryDx=0;entryDy=0;elbow=vertical;edgeStyle=orthogonalEdgeStyle;" parent="WIyWlLk6GJQsqaUBKTNV-1" source="MqYh8-qySRi6QhNfX3zY-21" target="h3wy3HksXLd2l_CeTm2d-80" edge="1">
          <mxGeometry relative="1" as="geometry">
            <mxPoint x="30" y="170" as="targetPoint" />
            <Array as="points">
              <mxPoint x="240" y="700" />
              <mxPoint x="30" y="700" />
              <mxPoint x="30" y="180" />
            </Array>
          </mxGeometry>
        </mxCell>
        <mxCell id="MqYh8-qySRi6QhNfX3zY-21" value="執行成功回傳PC" style="rounded=0;whiteSpace=wrap;html=1;" parent="WIyWlLk6GJQsqaUBKTNV-1" vertex="1">
          <mxGeometry x="180" y="600" width="120" height="60" as="geometry" />
        </mxCell>
        <mxCell id="MqYh8-qySRi6QhNfX3zY-49" style="edgeStyle=orthogonalEdgeStyle;rounded=0;orthogonalLoop=1;jettySize=auto;html=1;" parent="WIyWlLk6GJQsqaUBKTNV-1" source="MqYh8-qySRi6QhNfX3zY-28" edge="1">
          <mxGeometry relative="1" as="geometry">
            <mxPoint x="30" y="180" as="targetPoint" />
            <Array as="points">
              <mxPoint x="600" y="700" />
            </Array>
          </mxGeometry>
        </mxCell>
        <mxCell id="MqYh8-qySRi6QhNfX3zY-28" value="執行失敗回傳PC" style="rounded=0;whiteSpace=wrap;html=1;" parent="WIyWlLk6GJQsqaUBKTNV-1" vertex="1">
          <mxGeometry x="540" y="600" width="120" height="60" as="geometry" />
        </mxCell>
        <mxCell id="MqYh8-qySRi6QhNfX3zY-35" style="edgeStyle=orthogonalEdgeStyle;rounded=0;orthogonalLoop=1;jettySize=auto;html=1;entryX=0.5;entryY=0;entryDx=0;entryDy=0;" parent="WIyWlLk6GJQsqaUBKTNV-1" source="MqYh8-qySRi6QhNfX3zY-29" target="MqYh8-qySRi6QhNfX3zY-21" edge="1">
          <mxGeometry relative="1" as="geometry">
            <Array as="points">
              <mxPoint x="200" y="550" />
              <mxPoint x="240" y="550" />
            </Array>
          </mxGeometry>
        </mxCell>
        <mxCell id="MqYh8-qySRi6QhNfX3zY-29" value="放料到平台" style="rounded=0;whiteSpace=wrap;html=1;" parent="WIyWlLk6GJQsqaUBKTNV-1" vertex="1">
          <mxGeometry x="162.5" y="450" width="75" height="30" as="geometry" />
        </mxCell>
        <mxCell id="MqYh8-qySRi6QhNfX3zY-33" style="edgeStyle=orthogonalEdgeStyle;rounded=0;orthogonalLoop=1;jettySize=auto;html=1;fillColor=#ffe6cc;strokeColor=#d79b00;" parent="WIyWlLk6GJQsqaUBKTNV-1" source="MqYh8-qySRi6QhNfX3zY-31" target="MqYh8-qySRi6QhNfX3zY-28" edge="1">
          <mxGeometry relative="1" as="geometry">
            <Array as="points">
              <mxPoint x="298" y="510" />
              <mxPoint x="600" y="510" />
            </Array>
          </mxGeometry>
        </mxCell>
        <mxCell id="MqYh8-qySRi6QhNfX3zY-31" value="放回料盤" style="rounded=0;whiteSpace=wrap;html=1;" parent="WIyWlLk6GJQsqaUBKTNV-1" vertex="1">
          <mxGeometry x="260" y="450" width="75" height="30" as="geometry" />
        </mxCell>
        <mxCell id="MqYh8-qySRi6QhNfX3zY-39" style="edgeStyle=orthogonalEdgeStyle;rounded=0;orthogonalLoop=1;jettySize=auto;html=1;entryX=0.5;entryY=0;entryDx=0;entryDy=0;" parent="WIyWlLk6GJQsqaUBKTNV-1" source="MqYh8-qySRi6QhNfX3zY-37" target="MqYh8-qySRi6QhNfX3zY-21" edge="1">
          <mxGeometry relative="1" as="geometry">
            <Array as="points">
              <mxPoint x="90" y="550" />
              <mxPoint x="240" y="550" />
            </Array>
          </mxGeometry>
        </mxCell>
        <mxCell id="MqYh8-qySRi6QhNfX3zY-37" value="放到秤重台" style="rounded=0;whiteSpace=wrap;html=1;" parent="WIyWlLk6GJQsqaUBKTNV-1" vertex="1">
          <mxGeometry x="52.5" y="450" width="75" height="30" as="geometry" />
        </mxCell>
        <mxCell id="MqYh8-qySRi6QhNfX3zY-47" style="edgeStyle=orthogonalEdgeStyle;rounded=0;orthogonalLoop=1;jettySize=auto;html=1;" parent="WIyWlLk6GJQsqaUBKTNV-1" source="MqYh8-qySRi6QhNfX3zY-41" target="MqYh8-qySRi6QhNfX3zY-21" edge="1">
          <mxGeometry relative="1" as="geometry">
            <Array as="points">
              <mxPoint x="740" y="550" />
              <mxPoint x="240" y="550" />
            </Array>
          </mxGeometry>
        </mxCell>
        <mxCell id="MqYh8-qySRi6QhNfX3zY-41" value="設定偏移" style="rounded=0;whiteSpace=wrap;html=1;" parent="WIyWlLk6GJQsqaUBKTNV-1" vertex="1">
          <mxGeometry x="700" y="240" width="80" height="40" as="geometry" />
        </mxCell>
        <mxCell id="vl5Y57umSdp4ZoqZ4JNc-4" value="成功" style="edgeStyle=orthogonalEdgeStyle;rounded=0;orthogonalLoop=1;jettySize=auto;html=1;entryX=0.5;entryY=0;entryDx=0;entryDy=0;" edge="1" parent="WIyWlLk6GJQsqaUBKTNV-1" source="vl5Y57umSdp4ZoqZ4JNc-3" target="MqYh8-qySRi6QhNfX3zY-37">
          <mxGeometry relative="1" as="geometry" />
        </mxCell>
        <mxCell id="vl5Y57umSdp4ZoqZ4JNc-13" style="edgeStyle=orthogonalEdgeStyle;rounded=0;orthogonalLoop=1;jettySize=auto;html=1;fillColor=#ffe6cc;strokeColor=#d79b00;" edge="1" parent="WIyWlLk6GJQsqaUBKTNV-1" source="vl5Y57umSdp4ZoqZ4JNc-3" target="vl5Y57umSdp4ZoqZ4JNc-7">
          <mxGeometry relative="1" as="geometry">
            <Array as="points">
              <mxPoint x="150" y="370" />
              <mxPoint x="150" y="510" />
            </Array>
          </mxGeometry>
        </mxCell>
        <mxCell id="vl5Y57umSdp4ZoqZ4JNc-3" value="有無料檢測" style="rhombus;whiteSpace=wrap;html=1;" vertex="1" parent="WIyWlLk6GJQsqaUBKTNV-1">
          <mxGeometry x="50" y="330" width="80" height="80" as="geometry" />
        </mxCell>
        <mxCell id="vl5Y57umSdp4ZoqZ4JNc-12" style="edgeStyle=orthogonalEdgeStyle;rounded=0;orthogonalLoop=1;jettySize=auto;html=1;entryX=0.5;entryY=0;entryDx=0;entryDy=0;fillColor=#ffe6cc;strokeColor=#d79b00;" edge="1" parent="WIyWlLk6GJQsqaUBKTNV-1" source="vl5Y57umSdp4ZoqZ4JNc-7" target="MqYh8-qySRi6QhNfX3zY-28">
          <mxGeometry relative="1" as="geometry" />
        </mxCell>
        <mxCell id="vl5Y57umSdp4ZoqZ4JNc-7" value="失敗" style="text;html=1;align=center;verticalAlign=middle;resizable=0;points=[];autosize=1;strokeColor=none;fillColor=none;" vertex="1" parent="WIyWlLk6GJQsqaUBKTNV-1">
          <mxGeometry x="217" y="495" width="50" height="30" as="geometry" />
        </mxCell>
      </root>
    </mxGraphModel>
  </diagram>
  <diagram id="VbmphJd0tfsmbjyHgw8U" name="第 2 页">
    <mxGraphModel dx="1050" dy="530" grid="1" gridSize="10" guides="1" tooltips="1" connect="1" arrows="1" fold="1" page="1" pageScale="1" pageWidth="827" pageHeight="1169" math="0" shadow="0">
      <root>
        <mxCell id="0" />
        <mxCell id="1" parent="0" />
        <mxCell id="fy-dO9vJz4EMbs0GgLMt-1" style="edgeStyle=orthogonalEdgeStyle;rounded=0;orthogonalLoop=1;jettySize=auto;html=1;entryX=0.5;entryY=0;entryDx=0;entryDy=0;" edge="1" parent="1" source="fy-dO9vJz4EMbs0GgLMt-2" target="fy-dO9vJz4EMbs0GgLMt-10">
          <mxGeometry relative="1" as="geometry" />
        </mxCell>
        <mxCell id="fy-dO9vJz4EMbs0GgLMt-2" value="開啟電源" style="rounded=1;whiteSpace=wrap;html=1;fontSize=12;glass=0;strokeWidth=1;shadow=0;" vertex="1" parent="1">
          <mxGeometry x="160" y="10" width="120" height="40" as="geometry" />
        </mxCell>
        <mxCell id="fy-dO9vJz4EMbs0GgLMt-3" value="" style="edgeStyle=orthogonalEdgeStyle;rounded=0;orthogonalLoop=1;jettySize=auto;html=1;" edge="1" parent="1" source="fy-dO9vJz4EMbs0GgLMt-4" target="fy-dO9vJz4EMbs0GgLMt-6">
          <mxGeometry relative="1" as="geometry" />
        </mxCell>
        <mxCell id="fy-dO9vJz4EMbs0GgLMt-4" value="等待PC登入" style="rounded=0;whiteSpace=wrap;html=1;" vertex="1" parent="1">
          <mxGeometry x="310" y="70" width="120" height="40" as="geometry" />
        </mxCell>
        <mxCell id="fy-dO9vJz4EMbs0GgLMt-5" value="" style="edgeStyle=orthogonalEdgeStyle;rounded=0;orthogonalLoop=1;jettySize=auto;html=1;" edge="1" parent="1" source="fy-dO9vJz4EMbs0GgLMt-6" target="fy-dO9vJz4EMbs0GgLMt-8">
          <mxGeometry relative="1" as="geometry" />
        </mxCell>
        <mxCell id="fy-dO9vJz4EMbs0GgLMt-6" value="手臂上電" style="rounded=0;whiteSpace=wrap;html=1;" vertex="1" parent="1">
          <mxGeometry x="474" y="70" width="120" height="40" as="geometry" />
        </mxCell>
        <mxCell id="fy-dO9vJz4EMbs0GgLMt-7" style="edgeStyle=orthogonalEdgeStyle;rounded=0;orthogonalLoop=1;jettySize=auto;html=1;entryX=0.5;entryY=0;entryDx=0;entryDy=0;" edge="1" parent="1" source="fy-dO9vJz4EMbs0GgLMt-8" target="fy-dO9vJz4EMbs0GgLMt-20">
          <mxGeometry relative="1" as="geometry" />
        </mxCell>
        <mxCell id="fy-dO9vJz4EMbs0GgLMt-8" value="產品參數載入" style="rounded=0;whiteSpace=wrap;html=1;" vertex="1" parent="1">
          <mxGeometry x="630" y="70" width="120" height="40" as="geometry" />
        </mxCell>
        <mxCell id="fy-dO9vJz4EMbs0GgLMt-9" style="edgeStyle=orthogonalEdgeStyle;rounded=0;orthogonalLoop=1;jettySize=auto;html=1;entryX=0;entryY=0.5;entryDx=0;entryDy=0;" edge="1" parent="1" source="fy-dO9vJz4EMbs0GgLMt-10" target="fy-dO9vJz4EMbs0GgLMt-4">
          <mxGeometry relative="1" as="geometry" />
        </mxCell>
        <mxCell id="fy-dO9vJz4EMbs0GgLMt-10" value="點位數據載入" style="rounded=0;whiteSpace=wrap;html=1;" vertex="1" parent="1">
          <mxGeometry x="165" y="70" width="110" height="40" as="geometry" />
        </mxCell>
        <mxCell id="fy-dO9vJz4EMbs0GgLMt-11" style="edgeStyle=orthogonalEdgeStyle;rounded=0;orthogonalLoop=1;jettySize=auto;html=1;entryX=0.5;entryY=0;entryDx=0;entryDy=0;" edge="1" parent="1" source="fy-dO9vJz4EMbs0GgLMt-18" target="fy-dO9vJz4EMbs0GgLMt-23">
          <mxGeometry relative="1" as="geometry">
            <mxPoint x="360" y="220" as="targetPoint" />
            <Array as="points">
              <mxPoint x="370" y="220" />
              <mxPoint x="90" y="220" />
            </Array>
          </mxGeometry>
        </mxCell>
        <mxCell id="fy-dO9vJz4EMbs0GgLMt-12" style="edgeStyle=orthogonalEdgeStyle;rounded=0;orthogonalLoop=1;jettySize=auto;html=1;entryX=0.5;entryY=0;entryDx=0;entryDy=0;" edge="1" parent="1" source="fy-dO9vJz4EMbs0GgLMt-18" target="fy-dO9vJz4EMbs0GgLMt-25">
          <mxGeometry relative="1" as="geometry">
            <Array as="points">
              <mxPoint x="370" y="220" />
              <mxPoint x="200" y="220" />
            </Array>
          </mxGeometry>
        </mxCell>
        <mxCell id="fy-dO9vJz4EMbs0GgLMt-13" style="edgeStyle=orthogonalEdgeStyle;rounded=0;orthogonalLoop=1;jettySize=auto;html=1;exitX=0.5;exitY=1;exitDx=0;exitDy=0;entryX=0.5;entryY=0;entryDx=0;entryDy=0;" edge="1" parent="1" source="fy-dO9vJz4EMbs0GgLMt-18" target="fy-dO9vJz4EMbs0GgLMt-27">
          <mxGeometry relative="1" as="geometry" />
        </mxCell>
        <mxCell id="fy-dO9vJz4EMbs0GgLMt-14" style="edgeStyle=orthogonalEdgeStyle;rounded=0;orthogonalLoop=1;jettySize=auto;html=1;entryX=0.5;entryY=0;entryDx=0;entryDy=0;" edge="1" parent="1" source="fy-dO9vJz4EMbs0GgLMt-18" target="fy-dO9vJz4EMbs0GgLMt-29">
          <mxGeometry relative="1" as="geometry" />
        </mxCell>
        <mxCell id="fy-dO9vJz4EMbs0GgLMt-15" style="edgeStyle=orthogonalEdgeStyle;rounded=0;orthogonalLoop=1;jettySize=auto;html=1;entryX=0.5;entryY=0;entryDx=0;entryDy=0;" edge="1" parent="1" source="fy-dO9vJz4EMbs0GgLMt-18" target="fy-dO9vJz4EMbs0GgLMt-31">
          <mxGeometry relative="1" as="geometry">
            <Array as="points">
              <mxPoint x="370" y="220" />
              <mxPoint x="534" y="220" />
            </Array>
          </mxGeometry>
        </mxCell>
        <mxCell id="fy-dO9vJz4EMbs0GgLMt-16" style="edgeStyle=orthogonalEdgeStyle;rounded=0;orthogonalLoop=1;jettySize=auto;html=1;entryX=0.5;entryY=0;entryDx=0;entryDy=0;" edge="1" parent="1" source="fy-dO9vJz4EMbs0GgLMt-18" target="fy-dO9vJz4EMbs0GgLMt-33">
          <mxGeometry relative="1" as="geometry">
            <Array as="points">
              <mxPoint x="370" y="220" />
              <mxPoint x="640" y="220" />
            </Array>
          </mxGeometry>
        </mxCell>
        <mxCell id="fy-dO9vJz4EMbs0GgLMt-17" style="edgeStyle=orthogonalEdgeStyle;rounded=0;orthogonalLoop=1;jettySize=auto;html=1;" edge="1" parent="1" source="fy-dO9vJz4EMbs0GgLMt-18" target="fy-dO9vJz4EMbs0GgLMt-48">
          <mxGeometry relative="1" as="geometry">
            <Array as="points">
              <mxPoint x="370" y="220" />
              <mxPoint x="740" y="220" />
            </Array>
          </mxGeometry>
        </mxCell>
        <mxCell id="fy-dO9vJz4EMbs0GgLMt-18" value="連線成功" style="rounded=0;whiteSpace=wrap;html=1;" vertex="1" parent="1">
          <mxGeometry x="310" y="160" width="120" height="40" as="geometry" />
        </mxCell>
        <mxCell id="fy-dO9vJz4EMbs0GgLMt-19" style="edgeStyle=orthogonalEdgeStyle;rounded=0;orthogonalLoop=1;jettySize=auto;html=1;entryX=0.5;entryY=0;entryDx=0;entryDy=0;" edge="1" parent="1" source="fy-dO9vJz4EMbs0GgLMt-20" target="fy-dO9vJz4EMbs0GgLMt-18">
          <mxGeometry relative="1" as="geometry">
            <Array as="points">
              <mxPoint x="530" y="180" />
              <mxPoint x="530" y="140" />
              <mxPoint x="370" y="140" />
            </Array>
          </mxGeometry>
        </mxCell>
        <mxCell id="fy-dO9vJz4EMbs0GgLMt-20" value="等待連線" style="rounded=0;whiteSpace=wrap;html=1;" vertex="1" parent="1">
          <mxGeometry x="630" y="160" width="120" height="40" as="geometry" />
        </mxCell>
        <mxCell id="fy-dO9vJz4EMbs0GgLMt-21" value="塗膠手臂" style="rounded=0;whiteSpace=wrap;html=1;" vertex="1" parent="1">
          <mxGeometry width="120" height="60" as="geometry" />
        </mxCell>
        <mxCell id="fy-dO9vJz4EMbs0GgLMt-22" style="edgeStyle=orthogonalEdgeStyle;rounded=0;orthogonalLoop=1;jettySize=auto;html=1;" edge="1" parent="1" source="fy-dO9vJz4EMbs0GgLMt-23" target="fy-dO9vJz4EMbs0GgLMt-46">
          <mxGeometry relative="1" as="geometry" />
        </mxCell>
        <mxCell id="fy-dO9vJz4EMbs0GgLMt-23" value="取料" style="rounded=0;whiteSpace=wrap;html=1;" vertex="1" parent="1">
          <mxGeometry x="50" y="240" width="80" height="40" as="geometry" />
        </mxCell>
        <mxCell id="fy-dO9vJz4EMbs0GgLMt-24" style="edgeStyle=orthogonalEdgeStyle;rounded=0;orthogonalLoop=1;jettySize=auto;html=1;entryX=0.5;entryY=0;entryDx=0;entryDy=0;" edge="1" parent="1" source="fy-dO9vJz4EMbs0GgLMt-25" target="fy-dO9vJz4EMbs0GgLMt-36">
          <mxGeometry relative="1" as="geometry" />
        </mxCell>
        <mxCell id="fy-dO9vJz4EMbs0GgLMt-25" value="塗膠" style="rounded=0;whiteSpace=wrap;html=1;" vertex="1" parent="1">
          <mxGeometry x="160" y="240" width="80" height="40" as="geometry" />
        </mxCell>
        <mxCell id="fy-dO9vJz4EMbs0GgLMt-26" style="edgeStyle=orthogonalEdgeStyle;rounded=0;orthogonalLoop=1;jettySize=auto;html=1;entryX=0.5;entryY=0;entryDx=0;entryDy=0;" edge="1" parent="1" source="fy-dO9vJz4EMbs0GgLMt-27" target="fy-dO9vJz4EMbs0GgLMt-38">
          <mxGeometry relative="1" as="geometry">
            <Array as="points">
              <mxPoint x="320" y="440" />
              <mxPoint x="360" y="440" />
              <mxPoint x="360" y="550" />
              <mxPoint x="240" y="550" />
            </Array>
          </mxGeometry>
        </mxCell>
        <mxCell id="fy-dO9vJz4EMbs0GgLMt-27" value="回原點" style="rounded=0;whiteSpace=wrap;html=1;" vertex="1" parent="1">
          <mxGeometry x="280" y="240" width="80" height="40" as="geometry" />
        </mxCell>
        <mxCell id="fy-dO9vJz4EMbs0GgLMt-28" style="edgeStyle=orthogonalEdgeStyle;rounded=0;orthogonalLoop=1;jettySize=auto;html=1;entryX=0.5;entryY=0;entryDx=0;entryDy=0;" edge="1" parent="1" source="fy-dO9vJz4EMbs0GgLMt-29" target="fy-dO9vJz4EMbs0GgLMt-38">
          <mxGeometry relative="1" as="geometry">
            <mxPoint x="420" y="550" as="targetPoint" />
            <Array as="points">
              <mxPoint x="420" y="550" />
              <mxPoint x="240" y="550" />
            </Array>
          </mxGeometry>
        </mxCell>
        <mxCell id="fy-dO9vJz4EMbs0GgLMt-29" value="讀其他產品" style="rounded=0;whiteSpace=wrap;html=1;" vertex="1" parent="1">
          <mxGeometry x="380" y="240" width="80" height="40" as="geometry" />
        </mxCell>
        <mxCell id="fy-dO9vJz4EMbs0GgLMt-30" style="edgeStyle=orthogonalEdgeStyle;rounded=0;orthogonalLoop=1;jettySize=auto;html=1;" edge="1" parent="1" source="fy-dO9vJz4EMbs0GgLMt-31" target="fy-dO9vJz4EMbs0GgLMt-38">
          <mxGeometry relative="1" as="geometry">
            <Array as="points">
              <mxPoint x="530" y="550" />
              <mxPoint x="240" y="550" />
            </Array>
          </mxGeometry>
        </mxCell>
        <mxCell id="fy-dO9vJz4EMbs0GgLMt-31" value="針頭校正" style="rounded=0;whiteSpace=wrap;html=1;" vertex="1" parent="1">
          <mxGeometry x="494" y="240" width="80" height="40" as="geometry" />
        </mxCell>
        <mxCell id="fy-dO9vJz4EMbs0GgLMt-32" style="edgeStyle=orthogonalEdgeStyle;rounded=0;orthogonalLoop=1;jettySize=auto;html=1;entryX=0.5;entryY=0;entryDx=0;entryDy=0;" edge="1" parent="1" source="fy-dO9vJz4EMbs0GgLMt-33" target="fy-dO9vJz4EMbs0GgLMt-38">
          <mxGeometry relative="1" as="geometry">
            <Array as="points">
              <mxPoint x="640" y="550" />
              <mxPoint x="240" y="550" />
            </Array>
          </mxGeometry>
        </mxCell>
        <mxCell id="fy-dO9vJz4EMbs0GgLMt-33" value="手動塗膠" style="rounded=0;whiteSpace=wrap;html=1;" vertex="1" parent="1">
          <mxGeometry x="600" y="240" width="80" height="40" as="geometry" />
        </mxCell>
        <mxCell id="fy-dO9vJz4EMbs0GgLMt-34" value="成功" style="edgeStyle=orthogonalEdgeStyle;rounded=0;orthogonalLoop=1;jettySize=auto;html=1;entryX=0.5;entryY=0;entryDx=0;entryDy=0;" edge="1" parent="1" source="fy-dO9vJz4EMbs0GgLMt-36" target="fy-dO9vJz4EMbs0GgLMt-42">
          <mxGeometry relative="1" as="geometry" />
        </mxCell>
        <mxCell id="fy-dO9vJz4EMbs0GgLMt-35" value="失敗" style="edgeStyle=orthogonalEdgeStyle;rounded=0;orthogonalLoop=1;jettySize=auto;html=1;entryX=0.5;entryY=0;entryDx=0;entryDy=0;" edge="1" parent="1" source="fy-dO9vJz4EMbs0GgLMt-36" target="fy-dO9vJz4EMbs0GgLMt-44">
          <mxGeometry relative="1" as="geometry">
            <Array as="points">
              <mxPoint x="298" y="350" />
            </Array>
          </mxGeometry>
        </mxCell>
        <mxCell id="fy-dO9vJz4EMbs0GgLMt-36" value="拍照取像" style="rhombus;whiteSpace=wrap;html=1;" vertex="1" parent="1">
          <mxGeometry x="160" y="310" width="80" height="80" as="geometry" />
        </mxCell>
        <mxCell id="fy-dO9vJz4EMbs0GgLMt-37" style="rounded=0;orthogonalLoop=1;jettySize=auto;html=1;entryX=0;entryY=0.5;entryDx=0;entryDy=0;elbow=vertical;edgeStyle=orthogonalEdgeStyle;" edge="1" parent="1" source="fy-dO9vJz4EMbs0GgLMt-38" target="fy-dO9vJz4EMbs0GgLMt-18">
          <mxGeometry relative="1" as="geometry">
            <mxPoint x="30" y="170" as="targetPoint" />
            <Array as="points">
              <mxPoint x="240" y="700" />
              <mxPoint x="30" y="700" />
              <mxPoint x="30" y="180" />
            </Array>
          </mxGeometry>
        </mxCell>
        <mxCell id="fy-dO9vJz4EMbs0GgLMt-38" value="執行成功回傳PC" style="rounded=0;whiteSpace=wrap;html=1;" vertex="1" parent="1">
          <mxGeometry x="180" y="600" width="120" height="60" as="geometry" />
        </mxCell>
        <mxCell id="fy-dO9vJz4EMbs0GgLMt-39" style="edgeStyle=orthogonalEdgeStyle;rounded=0;orthogonalLoop=1;jettySize=auto;html=1;" edge="1" parent="1" source="fy-dO9vJz4EMbs0GgLMt-40">
          <mxGeometry relative="1" as="geometry">
            <mxPoint x="30" y="180" as="targetPoint" />
            <Array as="points">
              <mxPoint x="600" y="700" />
            </Array>
          </mxGeometry>
        </mxCell>
        <mxCell id="fy-dO9vJz4EMbs0GgLMt-40" value="執行失敗回傳PC" style="rounded=0;whiteSpace=wrap;html=1;" vertex="1" parent="1">
          <mxGeometry x="540" y="600" width="120" height="60" as="geometry" />
        </mxCell>
        <mxCell id="fy-dO9vJz4EMbs0GgLMt-41" style="edgeStyle=orthogonalEdgeStyle;rounded=0;orthogonalLoop=1;jettySize=auto;html=1;entryX=0.5;entryY=0;entryDx=0;entryDy=0;" edge="1" parent="1" source="fy-dO9vJz4EMbs0GgLMt-42" target="fy-dO9vJz4EMbs0GgLMt-38">
          <mxGeometry relative="1" as="geometry">
            <Array as="points">
              <mxPoint x="200" y="550" />
              <mxPoint x="240" y="550" />
            </Array>
          </mxGeometry>
        </mxCell>
        <mxCell id="fy-dO9vJz4EMbs0GgLMt-42" value="開始塗膠" style="rounded=0;whiteSpace=wrap;html=1;" vertex="1" parent="1">
          <mxGeometry x="162.5" y="450" width="75" height="30" as="geometry" />
        </mxCell>
        <mxCell id="fy-dO9vJz4EMbs0GgLMt-43" style="edgeStyle=orthogonalEdgeStyle;rounded=0;orthogonalLoop=1;jettySize=auto;html=1;fillColor=#ffe6cc;strokeColor=#d79b00;" edge="1" parent="1" source="fy-dO9vJz4EMbs0GgLMt-44" target="fy-dO9vJz4EMbs0GgLMt-40">
          <mxGeometry relative="1" as="geometry">
            <Array as="points">
              <mxPoint x="298" y="510" />
              <mxPoint x="600" y="510" />
            </Array>
          </mxGeometry>
        </mxCell>
        <mxCell id="fy-dO9vJz4EMbs0GgLMt-44" value="發送錯誤" style="rounded=0;whiteSpace=wrap;html=1;" vertex="1" parent="1">
          <mxGeometry x="260" y="450" width="75" height="30" as="geometry" />
        </mxCell>
        <mxCell id="fy-dO9vJz4EMbs0GgLMt-45" style="edgeStyle=orthogonalEdgeStyle;rounded=0;orthogonalLoop=1;jettySize=auto;html=1;entryX=0.5;entryY=0;entryDx=0;entryDy=0;" edge="1" parent="1" source="fy-dO9vJz4EMbs0GgLMt-46" target="fy-dO9vJz4EMbs0GgLMt-38">
          <mxGeometry relative="1" as="geometry">
            <Array as="points">
              <mxPoint x="90" y="550" />
              <mxPoint x="240" y="550" />
            </Array>
          </mxGeometry>
        </mxCell>
        <mxCell id="fy-dO9vJz4EMbs0GgLMt-46" value="放到秤重台" style="rounded=0;whiteSpace=wrap;html=1;" vertex="1" parent="1">
          <mxGeometry x="52.5" y="450" width="75" height="30" as="geometry" />
        </mxCell>
        <mxCell id="fy-dO9vJz4EMbs0GgLMt-47" style="edgeStyle=orthogonalEdgeStyle;rounded=0;orthogonalLoop=1;jettySize=auto;html=1;" edge="1" parent="1" source="fy-dO9vJz4EMbs0GgLMt-48" target="fy-dO9vJz4EMbs0GgLMt-38">
          <mxGeometry relative="1" as="geometry">
            <Array as="points">
              <mxPoint x="740" y="550" />
              <mxPoint x="240" y="550" />
            </Array>
          </mxGeometry>
        </mxCell>
        <mxCell id="fy-dO9vJz4EMbs0GgLMt-48" value="設定偏移" style="rounded=0;whiteSpace=wrap;html=1;" vertex="1" parent="1">
          <mxGeometry x="700" y="240" width="80" height="40" as="geometry" />
        </mxCell>
      </root>
    </mxGraphModel>
  </diagram>
</mxfile>
